<?xml version="1.0"?>
<svg xmlns="http://www.w3.org/2000/svg" xmlns:xlink="http://www.w3.org/1999/xlink" version="1.1" preserveAspectRatio="xMidYMid meet" viewBox="635 314 99 130">
<defs>
</defs>
<g data-item-type="text" data-item="Business" id="logo__item--business" class="logo__item">
    <g class="logo__item__inner" transform="translate(643.296875 476.60211923831105) scale(1 1) rotate(0 0 0)">
        <filter id="logo__item--business_Effect" x="-100%" y="-100%" width="300%" height="300%">
            <feGaussianBlur in="SourceGraphic" stdDeviation="1" result="glow"/>
            <feMerge>
                <feMergeNode in="glow"/>
                <feMergeNode in="SourceGraphic"/>
            </feMerge>
        </filter>
    </g>
</g>
<g data-item-type="image" data-item="Image" data-logo-item="" id="logo__item--logo_0" class="logo__item">
    <g class="logo__item__inner" transform="translate(621.1603090366451 313) scale(0.06420889209288892 0.06420889209288892) rotate(0 0 0)">
                undefined
        <g>
            <path fill="none" d="M1002.3,874.2c-3.3,0-6.6-0.1-9.9-0.2C995.7,874.2,998.9,874.2,1002.3,874.2z" data-part-id="logo__item--logo_0__0"/>
            <path fill="#939598" d="M1158.6,1542l-337.8-0.5c-33.6,0-61,27.3-61.1,60.8c-0.1,33.7,27.3,61,60.9,61l337.8,0.5   c33.6,0.1,61-27.1,61.1-60.8C1219.5,1569.4,1192.2,1542,1158.6,1542z" data-part-id="logo__item--logo_0__1"/>
            <path fill="#939598" d="M989.2,1924.8c104.8,0.2,119.6-69.4,119.6-69.4l-232.2-0.3C876.6,1855.1,884.3,1924.7,989.2,1924.8z" data-part-id="logo__item--logo_0__2"/>
            <path fill="#939598" d="M1146.2,1705.6l-313.5-0.4c-30.7-0.1-55.7,24.8-55.8,55.6c-0.1,30.8,24.9,55.7,55.6,55.8l313.5,0.4   c30.8,0,55.8-24.8,55.8-55.6C1201.9,1730.7,1177,1705.7,1146.2,1705.6z" data-part-id="logo__item--logo_0__3"/>
            <path fill="#FFE4C4" d="M997.6,686.9c-18.8,0-37-3-54-8.4l57.9-183.3l-113,357.8c0,0,36.9,15,85.6,19.8c0.2,0,0.5,0,0.7,0   c5.7,0.6,11.7,0.9,17.6,1.1c3.3,0.1,6.6,0.2,9.9,0.2c5.2,0,10.5-0.1,15.8-0.4c26.7-1.5,54.5-7.4,80.4-20.8l-47.3-174.4   C1034.3,684,1016.3,686.9,997.6,686.9z" data-part-id="logo__item--logo_0__4"/>
            <path fill="#AFAFB1" d="M997.6,686.9c18.7,0,36.7-2.9,53.6-8.3l-49.8-183.4l-57.9,183.3C960.6,684,978.8,686.9,997.6,686.9z" data-part-id="logo__item--logo_0__5"/>
            <path fill="#FF9F36" d="M736.4,404.9l-90.7-119.2C666,282.4,755,415,755,415c-22.7-85.5-101.5-208.2-137.8-165.4   C581,292.4,736.4,404.9,736.4,404.9z" data-part-id="logo__item--logo_0__6"/>
            <path fill="#FF9F36" d="M992.4,874c-6-0.3-11.9-0.5-17.6-1.1c-0.2,0-3.3,0-3.5,0c-2.5-0.3,4.8-0.5-10.2-0.8v625.5   c29,0.8,44,1.6,59,2.1v-626c0,0.1-1.5,0-2.8,0.1c-5.3,0.3-10.2,0.5-15.4,0.4C998.5,874.2,995.7,874.2,992.4,874z" data-part-id="logo__item--logo_0__7"/>
            <path fill="#FF9F36" d="M418.1,1186.1l89.1-44.8c0,0-125.8,21.9-116.6,58.1c9.2,36.2,92.2-14.2,130.8-58.7   C521.3,1140.7,429.3,1194,418.1,1186.1z" data-part-id="logo__item--logo_0__8"/>
            <path fill="#ff9d32" d="M1002.9,397.2c-260.1-0.4-471.3,186.3-471.6,417.1c0,16,1.2,31.8,3.2,47.3   c8.2,111.8,72.7,188.7,131.3,262.6c86.2,108.9,66,217.5,66,277.7c0,16.3,6.2,31.8,18.9,45.5c9.3,13.7,35.4,42.7,137.4,47.1V853.1   l113.2-357.8l49.9,185.4l47.4,176.4h8.5v642.3c58-3.1,119.4-15,143.7-48.6c14.6-14.2,20.2-30.8,20.2-48.1   c0.1-60.3-20.5-168.9,65.8-277.6c49.6-62.3,103.1-126.8,123.7-212.7c8.5-31.1,13.2-63.5,13.3-96.9   C1474,584.8,1263.2,397.6,1002.9,397.2z" data-part-id="logo__item--logo_0__9"/>
            <path fill="#FF9F36" d="M481.6,753.5c0,0-157.9-23.6-163.7-43.5l146.6,30.9c0,0-168.2-92.2-191.4-41.1   C250,750.9,394.7,769.6,481.6,753.5z" data-part-id="logo__item--logo_0__10"/>
            <path fill="#FF9F36" d="M1715.4,636.1c-23.1-51.1-191.4,41.1-191.4,41.1l146.6-30.9c-5.7,19.9-163.7,43.5-163.7,43.5   C1593.8,705.8,1738.5,687.1,1715.4,636.1z" data-part-id="logo__item--logo_0__11"/>
            <path fill="#FF9F36" d="M1538.8,904.7l117.7,27.7c-11,12.5-134.5-24.4-134.5-24.4c58,41.6,170.1,77.5,170.7,32.3   C1693.3,895,1538.8,904.7,1538.8,904.7z" data-part-id="logo__item--logo_0__12"/>
            <path fill="#FF9F36" d="M1481.4,1077.5l89.1,44.8c-11.2,8-103.2-45.4-103.2-45.4c38.6,44.5,121.6,94.9,130.8,58.7   C1607.2,1099.5,1481.4,1077.5,1481.4,1077.5z" data-part-id="logo__item--logo_0__13"/>
            <path fill="#FF9F36" d="M332,996.1l117.7-27.7c0,0-154.5-9.7-153.9,35.6c0.6,45.2,112.7,9.3,170.7-32.3   C466.5,971.8,343,1008.7,332,996.1z" data-part-id="logo__item--logo_0__14"/>
            <path fill="#FF9F36" d="M1294.2,197.7c-53-18.2-101.4,167.4-101.4,167.4l78.1-127.8c10.5,17.8-80.7,148.9-80.7,148.9   C1261.5,334,1347.2,215.9,1294.2,197.7z" data-part-id="logo__item--logo_0__15"/>
            <path fill="#FF9F36" d="M1380.7,499.4c114-27.9,282-132.1,229.5-184.1c-52.5-52-214.5,158.6-214.5,158.6l164.6-120.8   C1562.6,381.6,1380.7,499.4,1380.7,499.4z" data-part-id="logo__item--logo_0__16"/>
            <path fill="#FF9F36" d="M546.6,540.1L378.6,424.3c26.1-11.6,197,121.7,197,121.7c-63.7-98.5-217.3-223.1-249.2-156.5   C294.6,456.1,546.6,540.1,546.6,540.1z" data-part-id="logo__item--logo_0__17"/>
            <path fill="#FF9F36" d="M940.1,131.6c24.6,14.5,15.6,231,15.6,231c43-109.2,55-306.5-17.7-293.7c-72.7,12.8,5.6,266.8,5.6,266.8   L940.1,131.6z" data-part-id="logo__item--logo_0__18"/>
        </g>
    </g>
</g>
</svg>
